# xmcd
#
# Track frame offsets:
#  150
#  13168
#  26604
#  40302
#  53304
#  65282
#  78060
#  91696
#  103744
#  116831
#  130341
#  141804
#  153932
#  165306
#  177429
#  190438
#  202329
#  216248
#  246566
#  259997
#
# Disc length: 3649 seconds
#
# Revision: 0
# Processed by: cddbd v1.5.1PL2 Copyright (c) Steve Scherf et al.
# Submitted via: Collectorz.com_Music_Collector 6.11
#
DISCID=1b0e3f14
DTITLE=Robert Johnson - Bd Blues 05 [Longbox] [CD1)
DYEAR=2005
DGENRE=Blues
TTITLE0=Kindhearted woman blues
TTITLE1=I'll believe I'll dust my broom
TTITLE2=Sweet home Chicago
TTITLE3=Ramblin' on my mind
TTITLE4=When you got a good friend
TTITLE5=Come on in my kitchen
TTITLE6=Terraplane blues
TTITLE7=Phonograph blues
TTITLE8=32-20 blues
TTITLE9=They're red hot
TTITLE10=Dead shrimp blues
TTITLE11=Cross road blues
TTITLE12=Walking blues
TTITLE13=Last fair deal gone down
TTITLE14=Preaching blues
TTITLE15=If I had possession over judgement day
TTITLE16=Preachin the blues Part1
TTITLE17=Walking blues
TTITLE18=Take a little walk with me
TTITLE19=Black spider blues
EXTD=
EXTT0=
EXTT1=
EXTT2=
EXTT3=
EXTT4=
EXTT5=
EXTT6=
EXTT7=
EXTT8=
EXTT9=
EXTT10=
EXTT11=
EXTT12=
EXTT13=
EXTT14=
EXTT15=
EXTT16=
EXTT17=
EXTT18=
EXTT19=
PLAYORDER=
